<?xml version="1.0" encoding="iso-8859-1"?>
<!-- Uploaded to: SVG Repo, www.svgrepo.com, Generator: SVG Repo Mixer Tools -->
<svg fill="#000000" height="800px" width="800px" version="1.1" id="Layer_1" xmlns="http://www.w3.org/2000/svg" xmlns:xlink="http://www.w3.org/1999/xlink" 
	 viewBox="0 0 512.002 512.002" xml:space="preserve">
<g>
	<g>
		<polygon points="67.179,57.469 59.663,64.985 52.069,57.391 41.364,68.097 59.663,86.398 77.886,68.176 		"/>
	</g>
</g>
<g>
	<g>
		<polygon points="218.473,221.515 210.955,229.031 203.36,221.437 192.654,232.143 210.955,250.443 229.178,232.22 		"/>
	</g>
</g>
<g>
	<g>
		<polygon points="325.444,119.728 317.929,127.244 310.335,119.651 299.628,130.356 317.929,148.658 336.152,130.435 		"/>
	</g>
</g>
<g>
	<g>
		<polygon points="134.349,441.769 126.831,449.286 119.238,441.691 108.532,452.398 126.831,470.698 145.054,452.475 		"/>
	</g>
</g>
<g>
	<g>
		<polygon points="459.932,352.441 452.415,359.958 444.823,352.364 434.115,363.07 452.415,381.371 470.638,363.148 		"/>
	</g>
</g>
<g>
	<g>
		<path d="M455.073,201.509C455.073,90.396,364.676,0,253.563,0C142.451,0,52.053,90.396,52.053,201.509
			c0,77.531,44.02,144.965,108.373,178.65c-6.565,4.952-10.819,12.814-10.819,21.654c0,14.949,12.161,27.111,27.11,27.111
			s27.111-12.162,27.111-27.111c0-1.754-0.174-3.469-0.494-5.132c13.705,3.529,27.974,5.633,42.633,6.18v20.17
			c-4.823-2-9.978-3.002-15.548-3.002c-15.941,0-27.075,12.483-27.075,30.357c0,7.59,2.295,12.237,3.815,15.313l0.094,0.191
			c6.176,12.511,35.616,37.281,41.455,42.119l4.818,3.993l4.827-3.98c5.895-4.859,35.597-29.733,41.522-42.242l0.154-0.325
			c1.493-3.141,3.75-7.887,3.75-15.068c0-17.306-12.292-30.357-28.59-30.357c-5.006,0-9.646,0.907-14.08,2.786v-19.951
			c14.677-0.543,28.962-2.649,42.682-6.182c-0.32,1.662-0.494,3.378-0.494,5.132c0,14.949,12.161,27.111,27.11,27.111
			s27.111-12.162,27.111-27.111c0-8.838-4.254-16.702-10.819-21.654C411.053,346.474,455.073,279.041,455.073,201.509z
			 M176.718,413.783c-6.599,0-11.968-5.37-11.968-11.969c0-6.599,5.369-11.97,11.968-11.97c6.601,0,11.97,5.369,11.97,11.97
			C188.687,408.414,183.318,413.783,176.718,413.783z M275.19,435.169c9.24,0,13.449,7.887,13.449,15.216
			c0,3.765-1.109,6.098-2.283,8.568l-0.164,0.343c-2.922,6.168-19.466,21.737-32.643,32.987
			c-12.565-10.772-29.473-26.521-32.719-33.096l-0.097-0.196c-1.206-2.443-2.249-4.552-2.249-8.607
			c0-2.541,0.575-15.216,11.934-15.216c6.987,0,12.536,2.24,17.99,7.264l5.14,4.732l5.129-4.743
			C264.25,437.27,269.033,435.169,275.19,435.169z M330.408,413.783c-6.599,0-11.969-5.37-11.969-11.969
			c0-6.599,5.369-11.97,11.969-11.97c6.6,0,11.969,5.369,11.969,11.97C342.377,408.414,337.008,413.783,330.408,413.783z
			 M253.563,387.878c-102.764,0-186.368-83.605-186.368-186.368S150.799,15.141,253.563,15.141s186.369,83.605,186.369,186.368
			S356.327,387.878,253.563,387.878z"/>
	</g>
</g>
</svg>